<svg xmlns="http://www.w3.org/2000/svg" xml:space="preserve" width="512px" height="512px" version="1.1" style="shape-rendering:geometricPrecision; text-rendering:geometricPrecision; image-rendering:optimizeQuality; fill-rule:evenodd; clip-rule:evenodd" viewBox="0 0 512 512" xmlns:xlink="http://www.w3.org/1999/xlink">
 <defs>
  <style type="text/css">
   
    .fil0 {fill:black;fill-rule:nonzero}
   
  </style>
 </defs>
 <g id="Layer_x0020_1">
  <metadata id="CorelCorpID_0Corel-Layer"></metadata>
  <path class="fil0" d="M256 512c-69,0 -133,-27 -181,-75 -48,-48 -75,-112 -75,-181 0,-57 19,-111 53,-156 10,22 32,35 56,35 17,0 34,-6 46,-18 12,-13 19,-29 19,-46 0,-19 -8,-36 -23,-49 33,-14 68,-22 105,-22 68,0 132,27 181,75 48,49 75,113 75,181 0,57 -18,110 -52,154 -15,-17 -37,-27 -59,-27 -43,0 -78,35 -78,78 0,14 3,28 11,39 -25,8 -51,12 -78,12zm-1 -143c0,-29 -23,-53 -52,-53 -29,0 -53,24 -53,53 0,29 24,53 53,53 29,0 52,-24 52,-53zm-52 -39c21,0 38,18 38,39 0,21 -17,39 -38,39 -21,0 -39,-18 -39,-39 0,-21 18,-39 39,-39zm-27 -167c-13,0 -26,5 -36,15 -9,10 -14,22 -14,35 0,13 5,26 14,35 10,10 23,15 36,15 27,0 49,-23 49,-50 0,-27 -22,-50 -49,-50zm-36 50c0,-19 17,-36 36,-36 19,0 35,17 35,36 0,20 -16,36 -35,36 -19,0 -36,-16 -36,-36zm219 -50c-19,0 -36,7 -50,20 -13,14 -20,31 -20,50 0,19 7,36 20,50 14,13 31,20 50,20 19,0 36,-7 50,-20 13,-14 20,-31 20,-50 0,-19 -7,-36 -20,-50 -14,-13 -31,-20 -50,-20zm-56 70c0,-31 25,-56 56,-56 31,0 56,25 56,56 0,31 -25,56 -56,56 -31,0 -56,-25 -56,-56zm-240 -145c4,-4 8,-9 12,-13 18,-19 39,-34 62,-46 15,11 23,26 23,43 0,27 -23,50 -51,50 -21,0 -39,-14 -46,-34zm388 334c-4,5 -9,10 -14,15 -26,26 -57,46 -90,58 0,0 0,-1 -1,-1 -6,-9 -9,-21 -9,-33 0,-35 28,-64 64,-64 19,0 38,9 50,24l0 1z" id="id_101" style="fill: rgb(233, 213, 255);"></path>
 </g>
</svg>