<?xml version="1.0" standalone="no"?><svg xmlns="http://www.w3.org/2000/svg" viewBox="0 0 1440 320"><path fill="#0099ff" fill-opacity="1" d="M0,96L12.6,106.7C25.3,117,51,139,76,128C101.1,117,126,75,152,69.3C176.8,64,202,96,227,112C252.6,128,278,128,303,144C328.4,160,354,192,379,186.7C404.2,181,429,139,455,112C480,85,505,75,531,80C555.8,85,581,107,606,101.3C631.6,96,657,64,682,48C707.4,32,733,32,758,42.7C783.2,53,808,75,834,96C858.9,117,884,139,909,165.3C934.7,192,960,224,985,208C1010.5,192,1036,128,1061,122.7C1086.3,117,1112,171,1137,176C1162.1,181,1187,139,1213,112C1237.9,85,1263,75,1288,74.7C1313.7,75,1339,85,1364,117.3C1389.5,149,1415,203,1427,229.3L1440,256L1440,0L1427.4,0C1414.7,0,1389,0,1364,0C1338.9,0,1314,0,1288,0C1263.2,0,1238,0,1213,0C1187.4,0,1162,0,1137,0C1111.6,0,1086,0,1061,0C1035.8,0,1011,0,985,0C960,0,935,0,909,0C884.2,0,859,0,834,0C808.4,0,783,0,758,0C732.6,0,707,0,682,0C656.8,0,632,0,606,0C581.1,0,556,0,531,0C505.3,0,480,0,455,0C429.5,0,404,0,379,0C353.7,0,328,0,303,0C277.9,0,253,0,227,0C202.1,0,177,0,152,0C126.3,0,101,0,76,0C50.5,0,25,0,13,0L0,0Z"></path></svg>