<svg version="1.1" id="Layer_1" xmlns="http://www.w3.org/2000/svg" xmlns:xlink="http://www.w3.org/1999/xlink" x="0px" y="0px" viewBox="0 0 64 64" style="enable-background:new 0 0 64 64;" xml:space="preserve">
<path d="M8.7675781,34.2485352c-0.0922852,0.1669922-0.2299805,0.3046875-0.3974609,0.3955078l-1.9755859,1.0761719
	l1.9770508,1.0825195c0.1679688,0.0917969,0.3061523,0.2294922,0.3974609,0.3974609l1.0751343,1.9677124l1.0747681-1.9677124
	c0.0913086-0.1679688,0.2294922-0.3056641,0.3974609-0.3979492l1.9770508-1.0820312l-1.9755859-1.0761719
	c-0.168457-0.0917969-0.3071289-0.2299805-0.3989258-0.3984375l-1.0751953-1.96875L9.3188477,33.237793
	c-0.0126953,0.0297852-0.0268555,0.0585938-0.0419922,0.0864258L8.7675781,34.2485352z" id="id_101" style="fill: rgb(233, 213, 255);"></path>
<path d="M31.3183594,15.940918c2.8447266,0,5.1586914-2.3139648,5.1586914-5.1586914
	c0-0.3182373-0.0310669-0.6398315-0.0901489-0.9609375c-0.1616821-0.0441284-0.3233032-0.0888062-0.4859619-0.1290283
	c-0.173645-0.0430908-0.3469238-0.0870972-0.5215454-0.1257324c-0.2844849-0.0628662-0.5706177-0.1166382-0.8572388-0.1679077
	c-0.1553345-0.027832-0.3102417-0.059021-0.4661255-0.0834351c-0.3304443-0.0516968-0.6622925-0.0916138-0.9944458-0.1279907
	c-0.1148682-0.0125732-0.229126-0.0301514-0.3441162-0.0408936c-0.9038696-0.0843506-1.8117676-0.1119995-2.7161865-0.0828857
	c-0.1185913,0.0038452-0.2365723,0.0147705-0.3550415,0.0205078c-0.3284302,0.0160522-0.6566162,0.0353394-0.9834595,0.0663452
	c-0.1601562,0.0152588-0.3192749,0.0374146-0.4789429,0.0562744c-0.2828369,0.0333252-0.5651855,0.0687866-0.8460083,0.1134033
	c-0.1782227,0.0283813-0.3552246,0.0623169-0.5325317,0.0952759c-0.1621094,0.0300293-0.3231201,0.0644531-0.484375,0.0983276
	c-0.1063232,0.4088745-0.1607666,0.8339233-0.1607666,1.2686768C26.1601562,13.6269531,28.4741211,15.940918,31.3183594,15.940918z" id="id_102" style="fill: rgb(229, 208, 250);"></path>
<path d="M19.6010742,21.3920898c-1.7773438,0-3.2236328,1.4458008-3.2236328,3.2231445s1.4462891,3.2231445,3.2236328,3.2231445
	s3.2231445-1.4458008,3.2231445-3.2231445S21.378418,21.3920898,19.6010742,21.3920898z" id="id_103" style="fill: rgb(235, 214, 255);"></path>
<path d="M33.479248,42.0776367c0.1270142,0.144043,0.2475586,0.293335,0.357666,0.4519653
	c0.0491943,0.0709229,0.0928345,0.1452026,0.1384277,0.2188721c0.0504761,0.0814819,0.107666,0.157959,0.1535645,0.2427368
	c0.0201416-0.0058594,0.0411377-0.0061035,0.0613403-0.0115356c0.182251-0.0492554,0.366394-0.0875244,0.5519409-0.1036987
	c0.1586914-0.0200195,0.4106445-0.0195312,0.6420898,0.0043945c0.753418-1.3466797,1.8007812-2.4990234,3.0634766-3.3637695
	c0.7880859-0.5551758,1.6547852-0.9868164,2.565918-1.2753906c0.0473633-0.0161133,0.0952148-0.0322266,0.1430664-0.0473633
	h-0.6538086c-0.5009766,0-0.9248047-0.3706055-0.9912109-0.8671875c-0.1220703-0.9119263-0.4239502-1.7722778-0.883667-2.5315552
	c-0.0145874-0.0241089-0.0333862-0.0454712-0.0483398-0.069397c-0.1417236-0.2270508-0.2938232-0.4473877-0.463562-0.6543579
	c-0.020752-0.0209961-0.0420532-0.0414429-0.0609741-0.0645142c-0.1877441-0.2269287-0.3989868-0.4309082-0.6143188-0.6295166
	c-0.5742798-0.5268555-1.2286377-0.9595947-1.9425659-1.2567749c-0.3265381-0.1348877-0.6638184-0.2434082-1.0085449-0.3226929
	c-0.244751-0.0579834-0.4935303-0.1003418-0.7427368-0.1288452c-0.5747681-0.062561-1.1617432-0.0432129-1.7171631,0.0388794
	c-0.163147,0.0253296-0.3278198,0.048584-0.4824829,0.0865479c-0.3034058,0.071106-0.5686035,0.1574707-0.8209229,0.2528076
	c-0.0871582,0.0340576-0.1790771,0.0649414-0.2611084,0.1026611c-0.8272705,0.34729-1.5470581,0.8615723-2.1524048,1.4885254
	c-0.5074463,0.52771-0.9393921,1.1328125-1.2533569,1.817627c-0.0612183,0.1331787-0.1502686,0.2427979-0.2540283,0.3331299
	c-0.0160522,0.013855-0.0362549,0.0195312-0.0530396,0.0323486c-0.0918579,0.0703125-0.1903076,0.1273804-0.2995605,0.1623535
	c-0.0068359,0.0021973-0.0119629,0.0082397-0.0188599,0.0102539c0.0264893,0.0249023,0.0482178,0.0548096,0.0743408,0.0800781
	c0.2485352,0.2403564,0.4870605,0.4907227,0.7059326,0.7602539c0.8432617,1.0131836,1.4418945,2.2265625,1.7519531,3.5429688
	h0.7626953c0.2631226,0,0.520813,0.0253296,0.7744141,0.0648804c0.0808716,0.0125732,0.1585083,0.0331421,0.2381592,0.0495605
	c0.1719971,0.0354614,0.3413086,0.0767212,0.506897,0.1294556c0.0875244,0.027832,0.1727295,0.059021,0.2581787,0.0914917
	c0.1557617,0.0591431,0.3068237,0.1262207,0.4550781,0.2001343c0.0785522,0.0391235,0.1571655,0.0765991,0.2333984,0.119751
	c0.1635132,0.0925903,0.3191528,0.196228,0.4708862,0.3062744c0.0499878,0.0362549,0.1032104,0.0673218,0.1517944,0.1053467
	c0.1952515,0.1529541,0.3790283,0.3198853,0.5498047,0.5004272C33.4074097,41.9868164,33.440918,42.0341797,33.479248,42.0776367z" id="id_104" style="fill: rgb(229, 207, 252);"></path>
<path d="M11.1220703,48.378418h7.4746094h9.8447266c0.0366211-0.0613403,0.0838013-0.1186523,0.123291-0.1789551
	c0.0441284-0.0671997,0.0891113-0.1326904,0.1370239-0.1989136c0.1785889-0.2476807,0.3725586-0.4891968,0.5995483-0.7158813
	c0.6923828-0.6850586,1.5410156-1.1816406,2.4550781-1.4467773c0.0473633-0.487793,0.2055664-0.9638672,0.4638672-1.3916016
	c0.0722656-0.116394,0.1498413-0.2269897,0.2327881-0.3312378c-0.0630493-0.1366577-0.1348877-0.2680054-0.2166748-0.3918457
	c-0.0204468-0.0309448-0.0453491-0.0582275-0.0668945-0.0883179c-0.0675659-0.0944824-0.1381226-0.1866455-0.2158203-0.2722168
	c-0.0366211-0.0402832-0.0770874-0.0765381-0.1157837-0.1147461c-0.0698242-0.0688477-0.1411133-0.1358643-0.2172852-0.1974487
	c-0.0460205-0.0372314-0.0941162-0.0716553-0.1422729-0.1060791c-0.076416-0.0546265-0.1549683-0.1060181-0.2363281-0.1533813
	c-0.052063-0.0302734-0.1046143-0.0594482-0.1585083-0.0866089c-0.0853271-0.0430298-0.1735229-0.0805054-0.2630615-0.1154175
	c-0.0541992-0.0211182-0.1079102-0.043457-0.1635132-0.0614014c-0.0996704-0.0322266-0.2024536-0.0562134-0.3060303-0.078064
	c-0.0493774-0.010437-0.0974121-0.0245361-0.147583-0.0324707c-0.1551514-0.0245972-0.3131714-0.0396118-0.4742432-0.0396118
	h-1.59375c-0.5004883,0-0.9238281-0.3701172-0.9912109-0.8662109c-0.1723633-1.2768555-0.6821289-2.4545898-1.4746094-3.4067383
	c-0.5725098-0.7051392-1.2727661-1.2764893-2.0856934-1.7111816c-0.0068359-0.003418-0.0144653-0.003479-0.0212402-0.0070801
	c-0.9589844-0.5048828-2.0439453-0.7714844-3.1367188-0.7714844c-1.2098389,0-2.3648682,0.3374634-3.3754883,0.9192505
	c-1.1975098,0.6915283-2.1900635,1.732605-2.7880859,3.0372925c-0.2180786,0.475708-0.7676392,0.699585-1.2564087,0.5170288
	c-0.0007935-0.0003052-0.0015869-0.0001221-0.0023804-0.0004272c-0.0004272-0.0001221-0.0006104-0.0001221-0.0009766-0.0002441
	c-0.0048218-0.0018311-0.0098267-0.0007935-0.0146484-0.0026855c-0.1333008-0.0522461-0.2729492-0.0820312-0.3837891-0.0820312
	c-0.2290039,0-0.4430542,0.0823364-0.6113281,0.2214966c-0.0033569,0.0028076-0.005188,0.007019-0.0084839,0.0098267
	c-0.163208,0.1385498-0.2832031,0.3297729-0.3279419,0.5523682c-0.0102539,0.0541992-0.0205078,0.1210938-0.0205078,0.1923828
	c0.0107422,0.1308594,0.0151367,0.190918,0.0258789,0.2553711c0.0463867,0.2724609-0.0224609,0.5522461-0.1899414,0.7719727
	c-0.1669922,0.2202148-0.4179688,0.3613281-0.6928711,0.3896484c-0.6611328,0.0683594-1.2924805,0.3740234-1.7783203,0.8603516
	c-0.5717773,0.5717773-0.8867188,1.3222656-0.8867188,2.1137695C8.1137695,47.0288086,9.4633789,48.378418,11.1220703,48.378418z" id="id_105" style="fill: rgb(215, 192, 237);"></path>
<path d="M33.3154297,54.9526367h21.7070312c0.9868164,0,1.9101562-0.3798828,2.5991211-1.0698242
	c0.6904297-0.6899414,1.0703125-1.6103516,1.0703125-2.5917969c0-2.0234375-1.6459961-3.6699219-3.6694336-3.6699219h-1.8647461
	c-0.5136719,0-0.9438477-0.3891602-0.9951172-0.9003906c-0.0195312-0.1962891-0.0605469-0.3930664-0.1064453-0.590332
	c-0.2587891-1.2651367-0.8291016-2.4477539-1.6538086-3.4467773c-0.2182617-0.2705078-0.4414062-0.5131836-0.671875-0.7299805
	c-0.1975098-0.1901855-0.4013062-0.3581543-0.6096191-0.5167847c-0.0120239-0.0090332-0.0228271-0.0206909-0.0349121-0.0296021
	c-0.1397705-0.1083984-0.2918091-0.1953125-0.4375-0.2937012c-0.4649658-0.3137207-0.9497681-0.5927734-1.4655151-0.8017578
	c-0.675293-0.2731323-1.3874512-0.4534912-2.1204224-0.5349121c-0.0043945-0.0004883-0.0079346-0.003479-0.0123291-0.0040283
	c-0.2835083-0.0341187-0.5687866-0.0515137-0.8539429-0.0524292c-0.8653564-0.0013428-1.7512207,0.1467896-2.559021,0.4207153
	c-0.734375,0.2333984-1.4174805,0.5737305-2.0488281,1.0180664c-1.1982422,0.8208008-2.1479492,1.9550781-2.7583008,3.2880859
	c-0.2231445,0.4882812-0.7900391,0.7158203-1.2890625,0.5087891c-0.1655273-0.0678711-0.3798828-0.0942383-0.5512695-0.0927734
	c-0.0151367,0-0.0302734,0.0004883-0.0458984,0.0019531c-0.2699585,0.024231-0.5144043,0.1236572-0.7172241,0.2827759
	c-0.1182861,0.0967407-0.2175903,0.2084351-0.3013306,0.3432007c-0.1181641,0.1958008-0.184082,0.4277344-0.184082,0.659668
	c0.0107422,0.1694336,0.019043,0.1982422,0.0200195,0.2011719c0.0874023,0.284668,0.0429688,0.5932617-0.1206055,0.8422852
	s-0.4296875,0.4121094-0.7255859,0.4448242c-0.8193359,0.090332-1.6015625,0.4677734-2.2036133,1.0634766
	c-0.3291016,0.3291016-0.5791016,0.6894531-0.7392578,1.0664062c-0.2265625,0.4882812-0.3344727,0.9892578-0.3344727,1.5219727
	c0,0.4223633,0.0712891,0.8339844,0.2114258,1.2231445c0,0.000061,0,0.0001221,0,0.0001831
	C30.3709717,53.973999,31.7631226,54.9526367,33.3154297,54.9526367z" id="id_106" style="fill: rgb(225, 202, 247);"></path>
<path d="M47.5966797,17.9794922l1.0825195,1.9770508l1.0756836-1.9750977
	c0.0917969-0.1689453,0.2304688-0.3076172,0.3989258-0.3994141l1.9677734-1.0751953l-1.9677734-1.074707
	c-0.168457-0.0917969-0.3066406-0.2304688-0.3984375-0.3989258l-1.0761719-1.9755859l-1.0825195,1.9770508
	c-0.0932617,0.1708984-0.2338867,0.3105469-0.4057617,0.4018555l-1.9604492,1.0698242l1.96875,1.0756836
	C47.3671875,17.6733398,47.5048828,17.8115234,47.5966797,17.9794922z" id="id_107" style="fill: rgb(232, 209, 255);"></path>
<circle cx="42.3637695" cy="24.6152344" r="3.2231445" id="id_108" style="fill: rgb(234, 212, 255);"></circle>
<path d="M9.2983398,29.3535156c0.0057373-0.0037231,0.0128784-0.0050659,0.0186768-0.008667
	c0.0518188-0.0322266,0.1084595-0.0543823,0.1654663-0.0767212c0.0288086-0.0112915,0.0548706-0.0274658,0.0847168-0.0361328
	c0.0889893-0.0257568,0.1817627-0.0405884,0.2770386-0.0405884c0.3657227,0,0.7021484,0.199707,0.8774414,0.5205078
	l1.8115234,3.3168945l3.3251953,1.8115234c0.0170898,0.0092773,0.0336914,0.0185547,0.0498047,0.0288086
	c0.0198975-0.0119629,0.0420532-0.0203857,0.0620728-0.0321655c0.1472168-0.0869751,0.3031006-0.1574707,0.4552612-0.2358398
	c0.1506958-0.076355,0.2976685-0.1582031,0.453125-0.2255249c0.2855835-0.1268311,0.579834-0.2320557,0.87854-0.328125
	c0.008606-0.0026855,0.0168457-0.0061035,0.0254517-0.008728c0.8434448-0.2684937,1.7282104-0.4264526,2.6392212-0.4264526
	c0.8171997,0,1.6257935,0.1266479,2.4050903,0.3475342c0.0791626,0.0219116,0.1564941,0.048645,0.2351074,0.072876
	c0.2429199,0.0762939,0.4822388,0.1591187,0.7171021,0.2561646c0.0378418,0.015625,0.0777588,0.0250244,0.1153564,0.0411987
	c0.142395-0.0887451,0.293396-0.161438,0.4483643-0.2236938c0.029541-0.0119019,0.0600586-0.0189209,0.0899658-0.0299072
	c0.1521606-0.055542,0.3071899-0.0974731,0.4650269-0.1274414c0.0505371-0.0096436,0.1000366-0.0188599,0.1509399-0.0257568
	c0.1893921-0.0258789,0.3793335-0.039978,0.5665894-0.0282593c0.4630737-0.8027344,1.0475464-1.5177612,1.7296753-2.12146
	c0.6818848-0.6050415,1.4606934-1.0986328,2.3126221-1.4571533c0.1096191-0.0484619,0.2313232-0.0886841,0.347168-0.1328125
	c0.3261108-0.1275024,0.6758423-0.2443848,1.0722656-0.3378906c0.2034912-0.0477295,0.4169312-0.0759888,0.628418-0.1080322
	c0.7242432-0.1134644,1.4951782-0.142395,2.2631226-0.0560303c0.3273926,0.0358276,0.6513062,0.0899048,0.9668579,0.1630859
	c0.2958374,0.0689087,0.5796509,0.1776733,0.8659668,0.2781372c1.0083618,0.350769,1.956604,0.8719482,2.7719727,1.5713501
	c0.2029419,0.1734619,0.3799438,0.3754272,0.5665894,0.5673828c0.1263428,0.1306763,0.2667847,0.24646,0.3848267,0.385376
	c0.0351562,0.0317383,0.0678711,0.065918,0.0986328,0.1030273c0.2096558,0.2524414,0.4029541,0.5168457,0.5806885,0.7909546
	c0.0441284,0.0678711,0.0788574,0.142395,0.1210327,0.211731c0.4572144,0.7524414,0.8043213,1.5704956,1.0101929,2.4367676
	h0.7158203c0.1031494,0,0.2052612,0.0223999,0.3084106,0.0307617c0.1430054,0.0101929,0.288208,0.012146,0.4259644,0.0361328
	c0.0674438,0.0097046,0.1308594,0.0368652,0.1977539,0.0495605c0.2282715,0.0418701,0.4549561,0.0925903,0.6756592,0.1693115
	c0.1027832,0.0358887,0.197937,0.0880127,0.2980957,0.1307983c0.1757812,0.0750122,0.3499756,0.1507568,0.5166016,0.2467041
	c0.1113892,0.0640259,0.2134399,0.1398926,0.3196411,0.2125854c0.1418457,0.097229,0.2807007,0.1958618,0.4120483,0.3079834
	c0.1044312,0.0890503,0.2003784,0.1846924,0.2971191,0.2825928c0.0643921,0.0651245,0.1378784,0.1199341,0.1986084,0.1888428
	c0.1720581,0.0263672,0.3383179,0.0742798,0.5081177,0.109375c0.1859131,0.0386963,0.3726196,0.0705566,0.5556641,0.1196289
	c0.2980347,0.0794067,0.5877075,0.1811523,0.8760986,0.2873535c0.1085205,0.0401611,0.2207031,0.0691528,0.3276978,0.1129761
	c0.3988647,0.1629028,0.7862549,0.3516235,1.1605835,0.5648804c0.0787964,0.0449219,0.151001,0.100647,0.2285767,0.147644
	c0.2492065,0.1511841,0.4992676,0.3012695,0.7348633,0.4745483c1.3496094-2.847168,2.0585938-5.9921875,2.0585938-9.1679688
	c0-3.1328125-0.6879883-6.2294922-2.0014648-9.0556641l-0.5908203,1.0839844
	c-0.1748047,0.3212891-0.5112305,0.5209961-0.8769531,0.5214844c-0.0004883,0-0.0004883,0-0.0009766,0
	c-0.3652344,0-0.7016602-0.1992188-0.8769531-0.5200195l-1.8208008-3.3261719l-3.3178711-1.8125
	c-0.3208008-0.175293-0.5205078-0.5117188-0.5205078-0.8774414s0.199707-0.7021484,0.5205078-0.8774414l2.2245483-1.2158813
	C42.9951172,12.737915,40.8076782,11.413208,38.4567871,10.5c0.0037231,0.0940552,0.0202637,0.1884155,0.0202637,0.2822266
	c0,3.9472656-3.2114258,7.1586914-7.1586914,7.1586914s-7.1582031-3.2114258-7.1582031-7.1586914
	c0-0.2418213,0.0150757-0.480957,0.0389404-0.7183228C15.6893921,12.7539062,9.7636719,20.3912964,9.2983398,29.3535156z
	 M42.3637695,19.3920898c2.8798828,0,5.2231445,2.3432617,5.2231445,5.2231445s-2.3432617,5.2231445-5.2231445,5.2231445
	s-5.2231445-2.3432617-5.2231445-5.2231445S39.4838867,19.3920898,42.3637695,19.3920898z M24.8242188,24.6152344
	c0,2.8798828-2.3432617,5.2231445-5.2231445,5.2231445c-2.8803711,0-5.2236328-2.3432617-5.2236328-5.2231445
	s2.3432617-5.2231445,5.2236328-5.2231445C22.480957,19.3920898,24.8242188,21.7353516,24.8242188,24.6152344z" id="id_109" style="fill: rgb(229, 207, 252);"></path>
</svg>